<svg xmlns="http://www.w3.org/2000/svg" width="172" height="20" viewBox="0 0 172 20"><g><g><path fill="#007397" d="M159.202.782C157.947 1.304 157 2 156.3 3c-.68 1-1.02 2.075-1.02 3.354 0 1.315.336 2.367 1.006 3.156.713.79 1.464 1.37 2.382 1.742.917.372 2.06.748 3.427 1.06 1.124.282 1.904.538 2.449.77.508.23.762.56.762.986 0 .671-.517 1.007-1.551 1.007-.99 0-2.22-.302-3.69-.905-1.472-.603-2.697-1.313-3.678-2.17L154 16.884c1.277.989 2.786 1.755 4.527 2.3 1.74.544 3.473.816 5.175.816 1.51 0 2.885-.227 4.122-.68a6.633 6.633 0 0 0 2.941-2.082c.725-.934 1.087-2.1 1.087-3.496 0-1.38-.344-2.481-1.033-3.307-.688-.825-1.488-1.435-2.401-1.823-.914-.39-2.072-.77-3.475-1.143-1.08-.28-1.869-.537-2.368-.768-.5-.232-.749-.551-.749-.96 0-.544.396-.816 1.174-.816.805 0 1.842.231 3.124.694 1.282.463 2.467.993 3.555 1.592L172 2.313a13.144 13.144 0 0 0-3.913-1.687 16.822 16.822 0 0 0-4.52-.626c-1.655 0-3.11.26-4.365.782zm-23 0C134.947 1.304 134 2 133.3 3c-.68 1-1.02 2.075-1.02 3.354 0 1.315.336 2.367 1.006 3.156.713.79 1.464 1.37 2.382 1.742.917.372 2.06.748 3.427 1.06 1.124.282 1.904.538 2.449.77.508.23.762.56.762.986 0 .671-.517 1.007-1.551 1.007-.99 0-2.22-.302-3.69-.905-1.472-.603-2.697-1.313-3.678-2.17L131 16.884c1.277.989 2.786 1.755 4.527 2.3 1.74.544 3.473.816 5.175.816 1.51 0 2.885-.227 4.122-.68a6.633 6.633 0 0 0 2.941-2.082c.725-.934 1.087-2.1 1.087-3.496 0-1.38-.344-2.481-1.033-3.307-.688-.825-1.488-1.435-2.401-1.823-.914-.39-2.072-.77-3.475-1.143-1.08-.28-1.869-.537-2.368-.768-.5-.232-.749-.551-.749-.96 0-.544.396-.816 1.174-.816.805 0 1.842.231 3.124.694 1.282.463 2.467.993 3.555 1.592L149 2.313a13.144 13.144 0 0 0-3.913-1.687 16.822 16.822 0 0 0-4.52-.626c-1.655 0-3.11.26-4.365.782zM126.752 5V0H110v20h17v-5h-10.437v-2.507h9.251V7.479h-9.251V5zM103 20V0h-5.857v10.279L89.421 0H84v20h5.897V9.791L97.593 20zm-25 0V0h-7v20zM53.202.782C51.947 1.304 51 2 50.3 3c-.68 1-1.02 2.075-1.02 3.354 0 1.315.336 2.367 1.006 3.156.713.79 1.464 1.37 2.382 1.742.917.372 2.06.748 3.427 1.06 1.124.282 1.904.538 2.449.77.508.23.762.56.762.986 0 .671-.517 1.007-1.551 1.007-.99 0-2.22-.302-3.69-.905-1.472-.603-2.697-1.313-3.678-2.17L48 16.884c1.277.989 2.786 1.755 4.527 2.3 1.74.544 3.473.816 5.175.816 1.51 0 2.885-.227 4.122-.68a6.633 6.633 0 0 0 2.941-2.082c.724-.934 1.087-2.1 1.087-3.497 0-1.378-.345-2.48-1.033-3.306-.688-.825-1.488-1.435-2.401-1.823-.914-.39-2.072-.77-3.475-1.143-1.08-.28-1.869-.537-2.368-.768-.5-.232-.749-.551-.749-.96 0-.544.396-.816 1.174-.816.805 0 1.842.231 3.124.694 1.282.463 2.467.993 3.555 1.592L66 2.313A13.144 13.144 0 0 0 62.087.626 16.822 16.822 0 0 0 57.567 0c-1.655 0-3.11.26-4.365.782zM42 0h-6.55v11.374c0 .97-.268 1.746-.806 2.328-.538.581-1.22.872-2.047.872-.846 0-1.597-.3-2.158-.9-.593-.6-.89-1.366-.89-2.3V0H23v11.374c0 1.721.395 3.235 1.186 4.54a8.013 8.013 0 0 0 3.357 3.021C29 19.645 30.666 20 32.57 20c1.903 0 3.564-.355 4.984-1.065 1.447-.71 2.517-1.717 3.289-3.022.772-1.304 1.158-2.818 1.158-4.54zM5 12h3.668c.697 0 1.26.13 1.689.39.429.26.643.61.643 1.035 0 .465-.212.844-.635 1.137-.424.292-.99.438-1.697.438H5zm2-6h2.714c.39 0 .7.09.935.27.234.18.351.416.351.73a.888.888 0 0 1-.351.72c-.234.187-.546.28-.935.28H7zM0 0v20h10.236c1.558 0 2.92-.227 4.083-.682 1.165-.455 2.069-1.11 2.681-1.964.678-.854 1-1.843 1-2.967 0-1.263-.35-2.387-1-3.273-.746-.919-1.673-1.513-2.828-1.783.994-.331 1.828-.85 2.37-1.63.587-.779.88-1.701.88-2.645 0-1.056-.31-1.9-.933-2.66C15.866 1.634 15 1 13.816.626 12.656.21 11.306 0 9.766 0z"/></g></g></svg>