<svg xmlns="http://www.w3.org/2000/svg" width="28" height="28" viewBox="0 0 28 28"><g><g><g><path fill="#007397" d="M13.848 27.698C6.212 27.698 0 21.552 0 14 0 6.446 6.212.3 13.848.3 21.484.3 27.697 6.446 27.697 14c0 7.552-6.212 13.698-13.85 13.698m0-26.194C6.884 1.504 1.218 7.11 1.218 14c0 6.889 5.666 12.494 12.63 12.494 6.966 0 12.632-5.605 12.632-12.494 0-6.89-5.667-12.496-12.631-12.496"/></g><g><path fill="#007397" d="M13.847 27.698C9.288 27.698 5.58 21.552 5.58 14 5.58 6.446 9.288.3 13.847.3c4.558 0 8.265 6.146 8.265 13.7 0 7.552-3.707 13.698-8.265 13.698m0-26.194C10 1.504 6.797 7.11 6.797 14c0 6.889 3.203 12.494 7.05 12.494 3.886 0 7.048-5.605 7.048-12.494 0-6.89-3.162-12.496-7.048-12.496"/></g><g><path fill="#007397" d="M13.849 27.698a.605.605 0 0 1-.609-.602V.902c0-.332.273-.602.609-.602C21.485.3 27.698 6.446 27.698 14c0 7.552-6.213 13.698-13.85 13.698m.61-26.18V26.48C21.14 26.165 26.48 20.688 26.48 14c0-6.689-5.34-12.166-12.023-12.481"/></g><g><path fill="#007397" d="M26.224 19.218H1.468a.621.621 0 0 1-.57-.39A13.526 13.526 0 0 1 0 14c0-1.64.303-3.265.902-4.831a.616.616 0 0 1 .57-.389h24.752a.61.61 0 0 1 .57.389c.599 1.57.903 3.196.903 4.831a13.5 13.5 0 0 1-.903 4.829.61.61 0 0 1-.57.389M1.897 18h23.9a12.12 12.12 0 0 0 .682-4c0-1.355-.23-2.704-.684-4H1.9a12.077 12.077 0 0 0-.002 8"/></g></g></g></svg>